# Blender 4.1.0
# www.blender.org
mtllib circle.mtl
o Circle
v -0.000000 0.000000 -0.405600
v -0.079129 0.000000 -0.397806
v -0.155216 0.000000 -0.374725
v -0.225339 0.000000 -0.337244
v -0.286802 0.000000 -0.286802
v -0.337244 0.000000 -0.225339
v -0.374725 0.000000 -0.155216
v -0.397806 0.000000 -0.079129
v -0.405599 0.000000 -0.000000
v -0.397806 0.000000 0.079129
v -0.374725 0.000000 0.155216
v -0.337244 0.000000 0.225339
v -0.286802 0.000000 0.286802
v -0.225339 0.000000 0.337244
v -0.155216 0.000000 0.374725
v -0.079129 0.000000 0.397806
v -0.000000 0.000000 0.405599
v 0.079129 0.000000 0.397806
v 0.155216 0.000000 0.374725
v 0.225339 0.000000 0.337244
v 0.286802 0.000000 0.286802
v 0.337244 0.000000 0.225339
v 0.374725 0.000000 0.155216
v 0.397806 0.000000 0.079129
v 0.405599 0.000000 -0.000000
v 0.397806 0.000000 -0.079129
v 0.374725 0.000000 -0.155216
v 0.337244 0.000000 -0.225339
v 0.286802 0.000000 -0.286802
v 0.225339 0.000000 -0.337244
v 0.155216 0.000000 -0.374725
v 0.079129 0.000000 -0.397806
vn -0.0000 1.0000 -0.0000
vt 0.000000 0.000000
s 0
f 2/1/1 3/1/1 4/1/1 5/1/1 6/1/1 7/1/1 8/1/1 9/1/1 10/1/1 11/1/1 12/1/1 13/1/1 14/1/1 15/1/1 16/1/1 17/1/1 18/1/1 19/1/1 20/1/1 21/1/1 22/1/1 23/1/1 24/1/1 25/1/1 26/1/1 27/1/1 28/1/1 29/1/1 30/1/1 31/1/1 32/1/1 1/1/1
